<?xml version="1.0" encoding="UTF-8" standalone="no"?><!DOCTYPE svg PUBLIC "-//W3C//DTD SVG 1.1//EN" "http://www.w3.org/Graphics/SVG/1.1/DTD/svg11.dtd"><svg width="100%" height="100%" viewBox="0 0 105 106" version="1.1" xmlns="http://www.w3.org/2000/svg" xmlns:xlink="http://www.w3.org/1999/xlink" xml:space="preserve" xmlns:serif="http://www.serif.com/" style="fill-rule:evenodd;clip-rule:evenodd;stroke-linejoin:round;stroke-miterlimit:2;"><path id="Globe-Earth" serif:id="Globe Earth" d="M6.316,49.815c0.65,-9.387 4.08,-18.203 9.964,-25.606c3.798,1.645 7.848,3.038 12.074,4.137c-1.943,6.761 -3.05,13.976 -3.295,21.469l-18.743,0Zm43.076,30.597l-0,18.583c-5.329,-1.788 -10.286,-7.921 -13.835,-17.146c4.32,-0.8 8.963,-1.278 13.835,-1.437Zm-11.552,16.66c-6.578,-2.217 -12.581,-5.892 -17.595,-10.784c3.03,-1.2 6.325,-2.258 9.832,-3.148c2.091,5.582 4.737,10.318 7.763,13.932Zm-7.191,-40.776l18.743,-0l-0,18.469c-5.358,0.171 -10.601,0.759 -15.619,1.748c-1.801,-6.256 -2.871,-13.202 -3.124,-20.217Zm18.743,-24.949l-0,18.468l-18.743,0c0.253,-7.019 1.323,-13.96 3.124,-20.212c5.043,0.988 10.286,1.576 15.619,1.744Zm-29.147,-11.524c5.018,-4.891 11.021,-8.566 17.595,-10.78c-3.026,3.606 -5.668,8.347 -7.763,13.929c-3.503,-0.89 -6.802,-1.948 -9.832,-3.149Zm15.312,4.439c3.549,-9.233 8.51,-15.361 13.835,-17.138l-0,18.58c-4.876,-0.164 -9.519,-0.646 -13.835,-1.442Zm-7.203,53.504c-4.218,1.103 -8.272,2.491 -12.074,4.136c-5.884,-7.394 -9.314,-16.214 -9.964,-25.606l18.743,-0c0.245,7.489 1.352,14.7 3.295,21.47Zm70.593,-21.49c-0.653,9.407 -4.079,18.232 -9.963,25.626c-3.806,-1.645 -7.86,-3.033 -12.074,-4.132c1.939,-6.762 3.046,-13.977 3.295,-21.494l18.742,-0Zm-43.075,-30.572l0,-18.58c5.329,1.777 10.286,7.91 13.835,17.138c-4.317,0.796 -8.96,1.278 -13.835,1.442Zm19.314,-2.732c-2.09,-5.582 -4.737,-10.323 -7.766,-13.929c6.574,2.214 12.581,5.889 17.595,10.78c-3.03,1.201 -6.325,2.259 -9.829,3.149Zm-0.576,26.843l-18.738,0l0,-18.468c5.349,-0.172 10.592,-0.76 15.615,-1.744c1.801,6.243 2.874,13.189 3.123,20.212Zm5.591,0c-0.245,-7.488 -1.352,-14.699 -3.296,-21.466c4.223,-1.102 8.273,-2.49 12.079,-4.14c5.884,7.399 9.31,16.215 9.959,25.606l-18.742,0Zm-24.329,24.95l0,-18.489l18.738,-0c-0.249,7.039 -1.322,13.989 -3.123,20.232c-5.023,-0.988 -10.266,-1.576 -15.615,-1.743Zm29.147,11.523c-5.015,4.892 -11.021,8.567 -17.599,10.784c3.029,-3.614 5.676,-8.35 7.766,-13.932c3.512,0.894 6.807,1.948 9.833,3.148Zm-15.317,-4.439c-3.544,9.225 -8.501,15.354 -13.83,17.146l0,-18.583c4.855,0.159 9.494,0.637 13.83,1.437Zm-17.072,-80.874c-28.714,-0 -52.079,23.364 -52.079,52.083c-0,28.714 23.365,52.079 52.079,52.079c28.718,-0 52.083,-23.365 52.083,-52.079c-0,-28.719 -23.365,-52.083 -52.083,-52.083Z"/></svg>