<svg viewBox="0 0 280 80" fill="none" xmlns="http://www.w3.org/2000/svg"><path class="" d="M180.987 10H146.369C139.177 10 133.351 15.8331 133.351 23.0177V57.0318C133.351 64.2244 139.177 70.0503 146.369 70.0503H180.987C188.179 70.0503 194.005 64.2244 194.005 57.0318V23.0177C194.005 15.8331 188.179 10 180.987 10Z" fill="#1B1A19"></path><path class="" d="M36.6257 10H36.0215C19.4428 10 6 23.4421 6 40.0287C6 48.3138 9.3589 55.8235 14.7964 61.2539C20.2268 66.6914 27.7286 70.0503 36.0215 70.0503H36.6257C53.2117 70.0503 66.6545 56.6075 66.6545 40.0287C66.6545 31.7358 63.2956 24.2268 57.858 18.7957C52.4277 13.3589 44.9187 10 36.6257 10Z" fill="#1B1A19"></path><path class="" d="M117.261 10H82.6435C75.4509 10 69.625 15.8331 69.625 23.0177V57.0318C69.625 64.2244 75.4509 70.0503 82.6435 70.0503H117.261C124.454 70.0503 130.279 64.2244 130.279 57.0318V23.0177C130.279 15.8331 124.454 10 117.261 10Z" fill="#1B1A19"></path><path class="" d="M244.741 10H210.124C202.931 10 197.105 15.8331 197.105 23.0177V57.0318C197.105 64.2244 202.931 70.0503 210.124 70.0503H244.741C251.926 70.0503 257.76 64.2244 257.76 57.0318V23.0177C257.76 15.8331 251.926 10 244.741 10Z" fill="#1B1A19"></path><path class="" d="M44.4678 29.4658L37.1796 42.8274V50.7931H35.8216V42.8274L28.5471 29.4658H30.0619L36.5006 41.4162L42.9393 29.4658H44.4678Z" fill="#FFFFFE"></path><path class="" d="M94.2147 29.4658H106.191V30.667H95.5734V39.0908H105.146V40.2798H95.5734V49.5919H106.191V50.7931H94.2147V29.4658Z" fill="#FFFFFE"></path><path class="" d="M156.934 29.4658H158.933L162.015 37.6293C162.564 39.1433 163.112 40.671 163.726 42.5397H163.752C164.353 40.6984 164.888 39.1966 165.463 37.6293L168.545 29.4658H170.543V50.7938H169.29V30.8633H169.264C168.559 32.8621 167.853 34.7164 167.135 36.5965L164.314 44.1724H163.164L160.343 36.5965C159.69 34.8595 159.063 33.2275 158.215 30.8633H158.189V50.7938H156.934V29.4658Z" fill="#FFFFFE"></path><path class="" d="M231.54 43.4006L229.489 37.0935C228.81 34.9645 228.183 32.9794 227.452 30.6411H227.413C226.681 32.9794 226.055 34.9645 225.376 37.0935L223.325 43.4006H231.54ZM231.944 44.6291H222.92L220.922 50.7938H219.485L226.473 29.4658H228.393L235.379 50.7938H233.943L231.944 44.6291Z" fill="#FFFFFE"></path><path class="" d="M267.678 25.8291H269.009C269.739 25.8291 270.064 25.4637 270.064 24.6948C270.064 23.9497 269.713 23.7037 269.035 23.7037H267.678V25.8291ZM269.803 26.4153L271.017 28.932H270.092L268.969 26.5203H267.678V28.932H266.857V22.9859H269.074C270.326 22.9859 270.938 23.5462 270.938 24.6948C270.938 25.6069 270.561 26.1938 269.803 26.4153ZM273.443 25.9722C273.443 23.3247 271.343 21.2122 268.709 21.2122C266.047 21.2122 263.948 23.3247 263.948 25.9722C263.948 28.6069 266.047 30.72 268.709 30.72C271.343 30.72 273.443 28.6069 273.443 25.9722ZM274.212 25.9722C274.212 28.9981 271.734 31.4882 268.709 31.4882C265.658 31.4882 263.179 28.9981 263.179 25.9722C263.179 22.9334 265.658 20.4297 268.709 20.4297C271.734 20.4297 274.212 22.9334 274.212 25.9722Z" fill="#1B1A19"></path></svg>